# Blender v2.92.0 OBJ File: ''
# www.blender.org
mtllib kolobok.mtl
o Sphere_Sphere.003
v 1.595999 1.524304 -2.230748
v 1.025527 -1.189346 -2.840392
v 1.132491 -2.865905 -0.738584
v 0.211930 2.894629 -1.433074
v 3.130323 -0.475533 -0.674828
v 2.676195 1.607803 0.464308
v 2.262996 -1.362778 1.661929
v 0.016881 2.988501 1.113611
v 1.119316 0.740843 2.939533
v -0.387466 -1.512933 2.850631
v 0.212182 -3.068561 0.466467
v -1.797405 1.747505 2.037073
v -1.796790 -2.351916 1.088355
v -2.905882 -0.563612 1.194389
v -2.983082 1.089474 -1.041426
v -0.970196 0.456234 -2.919137
v -1.603217 -2.162558 -1.762816
vt 0.720900 0.835418
vt 0.652882 0.664370
vt 0.804071 0.544218
vt 0.690259 0.381378
vt 0.530784 0.450254
vt 0.473272 0.663288
vt 0.399088 0.361369
vt 0.594211 0.175775
vt 0.585427 0.074202
vt 0.308653 0.568614
vt 0.229729 0.340371
vt 0.132544 0.672405
vt 1.000000 0.334687
vt 0.942703 0.606462
vt 0.874999 0.278386
vt 0.996354 0.174786
vt 0.237247 0.863084
vt 0.235909 0.074785
vt 0.085170 0.234428
vt 0.058578 0.450163
vt 0.000000 0.608727
vt 0.945930 0.046024
vt 0.985236 0.918502
vn 0.0157 0.5148 -0.8572
vn 0.7160 0.0063 -0.6980
vn 0.5980 0.7571 -0.2631
vn 0.7661 -0.6414 0.0408
vn 0.5221 -0.8115 0.2623
vn 0.9360 0.0117 0.3518
vn 0.8236 0.1098 0.5565
vn 0.4041 -0.3042 0.8626
vn -0.2517 0.1304 0.9590
vn -0.9147 -0.3394 -0.2194
vn -0.8486 -0.5209 -0.0922
vn -0.2456 -0.3413 -0.9073
vn 0.1851 0.1782 -0.9664
vn 0.6802 -0.5558 -0.4779
vn 0.8545 0.3800 -0.3543
vn 0.4613 0.8872 0.0026
vn 0.4873 0.6820 0.5454
vn 0.3002 -0.7625 0.5731
vn -0.0273 0.6222 0.7824
vn -0.1418 -0.8450 0.5157
vn -0.5582 -0.0345 0.8290
vn -0.6039 -0.4149 0.6805
vn -0.5522 0.8330 0.0346
vn -0.9019 0.3318 0.2765
vn -0.3583 -0.9296 -0.0861
vn -0.4972 0.8648 -0.0700
vn -0.6987 -0.1408 -0.7015
vn -0.4275 0.6125 -0.6649
vn -0.1437 -0.9521 -0.2699
vn 0.0331 -0.7805 -0.6243
usemtl None
s off
f 4/1/1 1/2/1 16/3/1
f 2/4/2 1/2/2 5/5/2
f 4/1/3 6/6/3 1/2/3
f 5/5/4 7/7/4 3/8/4
f 3/8/5 7/7/5 11/9/5
f 6/6/6 7/7/6 5/5/6
f 6/6/7 9/10/7 7/7/7
f 9/10/8 10/11/8 7/7/8
f 12/12/9 10/11/9 9/10/9
f 14/13/10 15/14/10 17/15/10
f 14/13/11 17/15/11 13/16/11
f 16/3/12 2/4/12 17/15/12
f 16/3/13 1/2/13 2/4/13
f 3/8/14 2/4/14 5/5/14
f 1/2/15 6/6/15 5/5/15
f 4/1/16 8/17/16 6/6/16
f 6/6/17 8/17/17 9/10/17
f 11/9/18 7/7/18 10/11/18
f 8/17/19 12/12/19 9/10/19
f 11/18/20 10/11/20 13/19/20
f 10/11/21 12/12/21 14/20/21
f 10/11/22 14/20/22 13/19/22
f 12/12/23 8/17/23 15/21/23
f 14/20/24 12/12/24 15/21/24
f 13/16/25 17/15/25 11/22/25
f 8/23/26 4/1/26 15/14/26
f 15/14/27 16/3/27 17/15/27
f 15/14/28 4/1/28 16/3/28
f 11/22/29 17/15/29 3/8/29
f 17/15/30 2/4/30 3/8/30
